# Blender v2.79 (sub 0) OBJ File: 'big_floor_collision.blend'
# www.blender.org
mtllib big_floor_collision.mtl
o Basic_Floor
v 12.000000 0.249999 30.000000
v 27.000000 0.249999 30.000000
v 27.000000 -0.250001 30.000000
v 12.000000 -0.250001 30.000000
v 27.000000 0.249999 15.000000
v 27.000000 -0.250001 15.000000
v 12.000000 0.249999 15.000000
v 12.000000 -0.250001 15.000000
v 12.000000 0.249999 15.000000
v 27.000000 0.249999 15.000000
v 27.000000 -0.250001 15.000000
v 12.000000 -0.250001 15.000000
v 27.000000 0.250000 0.000000
v 27.000000 -0.250000 -0.000000
v 12.000000 0.250000 0.000000
v 12.000000 -0.250000 -0.000000
v -3.000000 0.249999 30.000000
v 12.000000 0.249999 30.000000
v 12.000000 -0.250001 30.000000
v -3.000000 -0.250001 30.000000
v 12.000000 0.249999 15.000000
v 12.000000 -0.250001 15.000000
v -3.000000 0.249999 15.000000
v -3.000000 -0.250001 15.000000
v -3.000000 0.249999 15.000000
v 12.000000 0.249999 15.000000
v 12.000000 -0.250001 15.000000
v -3.000000 -0.250001 15.000000
v 12.000000 0.250000 0.000000
v 12.000000 -0.250000 -0.000000
v -3.000000 0.250000 0.000000
v -3.000000 -0.250000 -0.000000
vt 0.000000 0.250000
vt 0.000000 -0.250000
vt -1.500000 -0.250000
vt -1.500000 0.250000
vt 1.500000 0.250000
vt 1.500000 -0.250000
vt 0.000000 -0.250000
vt 0.000000 0.250000
vt 1.500000 0.250000
vt 1.500000 -0.250000
vt 0.000000 -0.250000
vt 0.000000 0.250000
vt -1.500000 -0.250000
vt -1.500000 0.250000
vt 0.000000 0.000000
vt 0.000000 1.500000
vt 1.500000 1.500000
vt 1.500000 0.000000
vt 0.000000 1.500000
vt 0.000000 0.000000
vt -1.500000 0.000000
vt -1.500000 1.500000
vt 0.000000 0.250000
vt 0.000000 -0.250000
vt -1.500000 -0.250000
vt -1.500000 0.250000
vt 1.500000 0.250000
vt 1.500000 -0.250000
vt 0.000000 -0.250000
vt 0.000000 0.250000
vt 1.500000 0.250000
vt 1.500000 -0.250000
vt 0.000000 -0.250000
vt 0.000000 0.250000
vt -1.500000 -0.250000
vt -1.500000 0.250000
vt 0.000000 0.000000
vt 0.000000 1.500000
vt 1.500000 1.500000
vt 1.500000 0.000000
vt 0.000000 1.500000
vt 0.000000 0.000000
vt -1.500000 0.000000
vt -1.500000 1.500000
vt 0.000000 0.250000
vt 0.000000 -0.250000
vt -1.500000 -0.250000
vt -1.500000 0.250000
vt 1.500000 0.250000
vt 1.500000 -0.250000
vt 0.000000 -0.250000
vt 0.000000 0.250000
vt 1.500000 0.250000
vt 1.500000 -0.250000
vt 0.000000 -0.250000
vt 0.000000 0.250000
vt -1.500000 -0.250000
vt -1.500000 0.250000
vt 0.000000 0.000000
vt 0.000000 1.500000
vt 1.500000 1.500000
vt 1.500000 0.000000
vt 0.000000 1.500000
vt 0.000000 0.000000
vt -1.500000 0.000000
vt -1.500000 1.500000
vt 0.000000 0.250000
vt 0.000000 -0.250000
vt -1.500000 -0.250000
vt -1.500000 0.250000
vt 1.500000 0.250000
vt 1.500000 -0.250000
vt 0.000000 -0.250000
vt 0.000000 0.250000
vt 1.500000 0.250000
vt 1.500000 -0.250000
vt 0.000000 -0.250000
vt 0.000000 0.250000
vt -1.500000 -0.250000
vt -1.500000 0.250000
vt 0.000000 0.000000
vt 0.000000 1.500000
vt 1.500000 1.500000
vt 1.500000 0.000000
vt 0.000000 1.500000
vt 0.000000 0.000000
vt -1.500000 0.000000
vt -1.500000 1.500000
vn 0.0000 0.0000 1.0000
vn 1.0000 0.0000 0.0000
vn 0.0000 0.0000 -1.0000
vn -1.0000 0.0000 0.0000
vn 0.0000 1.0000 0.0000
vn 0.0000 -1.0000 -0.0000
usemtl Floor_Grey
s 1
f 1/1/1 4/2/1 3/3/1 2/4/1
f 2/5/2 3/6/2 6/7/2 5/8/2
f 5/9/3 6/10/3 8/11/3 7/12/3
f 7/12/4 8/11/4 4/13/4 1/14/4
f 7/15/5 1/16/5 2/17/5 5/18/5
f 4/19/6 8/20/6 6/21/6 3/22/6
f 25/23/1 28/24/1 27/25/1 26/26/1
f 26/27/2 27/28/2 30/29/2 29/30/2
f 29/31/3 30/32/3 32/33/3 31/34/3
f 31/34/4 32/33/4 28/35/4 25/36/4
f 31/37/5 25/38/5 26/39/5 29/40/5
f 28/41/6 32/42/6 30/43/6 27/44/6
usemtl Floor_DarkGrey
f 9/45/1 12/46/1 11/47/1 10/48/1
f 10/49/2 11/50/2 14/51/2 13/52/2
f 13/53/3 14/54/3 16/55/3 15/56/3
f 15/56/4 16/55/4 12/57/4 9/58/4
f 15/59/5 9/60/5 10/61/5 13/62/5
f 12/63/6 16/64/6 14/65/6 11/66/6
f 17/67/1 20/68/1 19/69/1 18/70/1
f 18/71/2 19/72/2 22/73/2 21/74/2
f 21/75/3 22/76/3 24/77/3 23/78/3
f 23/78/4 24/77/4 20/79/4 17/80/4
f 23/81/5 17/82/5 18/83/5 21/84/5
f 20/85/6 24/86/6 22/87/6 19/88/6
