# Blender v2.79 (sub 0) OBJ File: ''
# www.blender.org
mtllib fucked_cube.mtl
o Cube.000_Cube.003
v 1.000000 -1.000000 -1.000000
v 1.000000 -1.000000 1.000000
v -1.000000 -1.000000 1.000000
v -1.000000 -1.000000 -1.000000
v 1.000000 1.000000 -0.999999
v 0.999999 1.000000 1.000001
v -1.000000 1.000000 1.000000
v -1.000000 1.000000 -1.000000
vt 0.785670 0.428586
vt 0.714253 0.642836
vt 0.357169 0.642836
vt 0.542853 0.300036
vt 0.714331 0.404424
vt 0.357169 0.285752
vt 0.285752 0.500003
vt 0.999915 0.725852
vt 0.000085 0.642836
vt 0.071502 0.428586
vt 0.142919 0.214336
vt 0.214336 0.000085
vn 0.0000 -1.0000 0.0000
vn 0.0000 1.0000 0.0000
vn 1.0000 0.0000 0.0000
vn -0.0000 -0.0000 1.0000
vn -1.0000 -0.0000 -0.0000
vn 0.0000 0.0000 -1.0000
usemtl Material
s off
f 1/1/1 2/2/1 3/3/1 4/4/1
f 5/5/2 8/6/2 7/7/2 6/8/2
f 1/1/3 5/5/3 6/8/3 2/2/3
f 2/9/4 6/10/4 7/7/4 3/3/4
f 3/3/5 7/7/5 8/6/5 4/4/5
f 5/11/6 1/12/6 4/4/6 8/6/6
