# Blender v2.83.1 OBJ File: 'path.blend'
# www.blender.org
mtllib path.mtl
o Ground_Plane.002
v -12.000000 0.000000 12.000000
v 12.000000 0.000000 12.000000
v -12.000000 0.000000 -12.000000
v 12.000000 0.000000 -12.000000
vt 0.000000 0.000000
vt 1.000000 0.000000
vt 1.000000 1.000000
vt 0.000000 1.000000
vn 0.0000 1.0000 0.0000
usemtl Material.001
s off
f 1/1/1 2/2/1 4/3/1 3/4/1
o Road_Plane.003
v -12.507883 0.040000 0.500000
v -11.504658 0.040000 0.500000
v -12.507883 0.040000 -0.500000
v -11.504658 0.040000 -0.500000
v -11.504658 0.040000 0.500000
v -10.504658 0.040000 0.500000
v -11.504658 0.040000 -0.500000
v -10.504658 0.040000 -0.500000
v -10.504658 0.040000 0.500000
v -9.508720 0.040000 0.500621
v -10.504658 0.040000 -0.500000
v -9.500605 0.040000 -0.499346
v -9.508720 0.040000 0.500621
v -8.906187 0.040000 0.619151
v -9.500605 0.040000 -0.499346
v -8.230070 0.040000 -0.117643
v -8.906187 0.040000 0.619151
v -8.523571 0.040000 1.299179
v -8.230070 0.040000 -0.117643
v -7.603122 0.040000 0.908317
v -8.523571 0.040000 1.299179
v -8.145231 0.040000 2.224805
v -7.603122 0.040000 0.908317
v -7.224776 0.040000 1.833956
v -8.145231 0.040000 2.224805
v -7.691236 0.040000 3.173810
v -7.224776 0.040000 1.833956
v -6.816916 0.040000 2.688462
v -7.691236 0.040000 3.173810
v -7.077477 0.040000 4.080284
v -6.816916 0.040000 2.688462
v -6.312936 0.040000 3.435709
v -7.077477 0.040000 4.080284
v -6.247269 0.040000 4.842451
v -6.312936 0.040000 3.435709
v -5.676007 0.040000 4.021683
v -6.247269 0.040000 4.842451
v -5.245557 0.040000 5.357567
v -5.676007 0.040000 4.021683
v -4.905280 0.040000 4.417241
v -5.245557 0.040000 5.357567
v -4.172647 0.040000 5.614625
v -4.905280 0.040000 4.417241
v -4.037735 0.040000 4.623767
v -4.172647 0.040000 5.614625
v -3.095195 0.040000 5.668940
v -4.037735 0.040000 4.623767
v -3.120636 0.040000 4.669264
v -3.095195 0.040000 5.668940
v -2.038733 0.040000 5.572804
v -3.120636 0.040000 4.669264
v -2.187201 0.040000 4.583887
v -2.038733 0.040000 5.572804
v -1.010428 0.040000 5.362627
v -2.187201 0.040000 4.583887
v -1.257342 0.040000 4.393589
v -1.010428 0.040000 5.362627
v -0.011624 0.040000 5.059673
v -1.257342 0.040000 4.393589
v -0.343263 0.040000 4.116266
v -0.011624 0.040000 5.059673
v 0.956200 0.040000 4.672491
v -0.343263 0.040000 4.116266
v 0.544987 0.040000 3.760952
v 0.956200 0.040000 4.672491
v 1.888600 0.040000 4.201367
v 0.544987 0.040000 3.760952
v 1.396839 0.040000 3.330637
v 1.888600 0.040000 4.201367
v 2.776477 0.040000 3.640657
v 1.396839 0.040000 3.330637
v 2.199080 0.040000 2.824193
v 2.776477 0.040000 3.640657
v 3.604030 0.040000 2.980635
v 2.199080 0.040000 2.824193
v 2.933995 0.040000 2.238304
v 3.604030 0.040000 2.980635
v 4.347038 0.040000 2.212945
v 2.933995 0.040000 2.238304
v 3.580597 0.040000 1.570630
v 4.347038 0.040000 2.212945
v 4.972878 0.040000 1.341672
v 3.580597 0.040000 1.570630
v 4.120096 0.040000 0.819405
v 4.972878 0.040000 1.341672
v 5.467235 0.040000 0.413521
v 4.120096 0.040000 0.819405
v 4.564660 0.040000 -0.017013
v 5.467235 0.040000 0.413521
v 5.887399 0.040000 -0.482674
v 4.564660 0.040000 -0.017013
v 4.993743 0.040000 -0.931429
v 5.887399 0.040000 -0.482674
v 6.347118 0.040000 -1.187615
v 4.993743 0.040000 -0.931429
v 5.631952 0.040000 -1.886569
v 6.347118 0.040000 -1.187615
v 6.972200 0.040000 -1.538144
v 5.631952 0.040000 -1.886569
v 6.721125 0.040000 -2.506112
v 6.972200 0.040000 -1.538144
v 7.737509 0.040000 -1.574797
v 6.721125 0.040000 -2.506112
v 7.935385 0.040000 -2.555024
v 7.737509 0.040000 -1.574797
v 8.544415 0.040000 -1.238066
v 7.935385 0.040000 -2.555024
v 8.974602 0.040000 -2.140805
v 8.544415 0.040000 -1.238066
v 9.570578 0.040000 -0.845204
v 8.974602 0.040000 -2.140805
v 9.810717 0.040000 -1.815942
v 9.570578 0.040000 -0.845204
v 10.777536 0.040000 -0.804288
v 9.810717 0.040000 -1.815942
v 10.583189 0.040000 -1.785221
v 10.777536 0.040000 -0.804288
v 11.871460 0.040000 -1.286497
v 10.583189 0.040000 -1.785221
v 11.301552 0.040000 -2.108206
v 11.871460 0.040000 -1.286497
v 12.704199 0.040000 -2.003511
v 11.301552 0.040000 -2.108206
v 11.985647 0.040000 -2.698984
vt 0.000000 0.000000
vt 1.000000 0.000000
vt 1.000000 1.000000
vt 0.000000 1.000000
vt 0.000000 0.000000
vt 1.000000 0.000000
vt 1.000000 1.000000
vt 0.000000 1.000000
vt 0.000000 0.000000
vt 1.000000 0.000000
vt 1.000000 1.000000
vt 0.000000 1.000000
vt 0.000000 0.000000
vt 1.000000 0.000000
vt 1.000000 1.000000
vt 0.000000 1.000000
vt 0.000000 0.000000
vt 1.000000 0.000000
vt 1.000000 1.000000
vt 0.000000 1.000000
vt 0.000000 0.000000
vt 1.000000 0.000000
vt 1.000000 1.000000
vt 0.000000 1.000000
vt 0.000000 0.000000
vt 1.000000 0.000000
vt 1.000000 1.000000
vt 0.000000 1.000000
vt 0.000000 0.000000
vt 1.000000 0.000000
vt 1.000000 1.000000
vt 0.000000 1.000000
vt 0.000000 0.000000
vt 1.000000 0.000000
vt 1.000000 1.000000
vt 0.000000 1.000000
vt 0.000000 0.000000
vt 1.000000 0.000000
vt 1.000000 1.000000
vt 0.000000 1.000000
vt 0.000000 0.000000
vt 1.000000 0.000000
vt 1.000000 1.000000
vt 0.000000 1.000000
vt 0.000000 0.000000
vt 1.000000 0.000000
vt 1.000000 1.000000
vt 0.000000 1.000000
vt 0.000000 0.000000
vt 1.000000 0.000000
vt 1.000000 1.000000
vt 0.000000 1.000000
vt 0.000000 0.000000
vt 1.000000 0.000000
vt 1.000000 1.000000
vt 0.000000 1.000000
vt 0.000000 0.000000
vt 1.000000 0.000000
vt 1.000000 1.000000
vt 0.000000 1.000000
vt 0.000000 0.000000
vt 1.000000 0.000000
vt 1.000000 1.000000
vt 0.000000 1.000000
vt 0.000000 0.000000
vt 1.000000 0.000000
vt 1.000000 1.000000
vt 0.000000 1.000000
vt 0.000000 0.000000
vt 1.000000 0.000000
vt 1.000000 1.000000
vt 0.000000 1.000000
vt 0.000000 0.000000
vt 1.000000 0.000000
vt 1.000000 1.000000
vt 0.000000 1.000000
vt 0.000000 0.000000
vt 1.000000 0.000000
vt 1.000000 1.000000
vt 0.000000 1.000000
vt 0.000000 0.000000
vt 1.000000 0.000000
vt 1.000000 1.000000
vt 0.000000 1.000000
vt 0.000000 0.000000
vt 1.000000 0.000000
vt 1.000000 1.000000
vt 0.000000 1.000000
vt 0.000000 0.000000
vt 1.000000 0.000000
vt 1.000000 1.000000
vt 0.000000 1.000000
vt 0.000000 0.000000
vt 1.000000 0.000000
vt 1.000000 1.000000
vt 0.000000 1.000000
vt 0.000000 0.000000
vt 1.000000 0.000000
vt 1.000000 1.000000
vt 0.000000 1.000000
vt 0.000000 0.000000
vt 1.000000 0.000000
vt 1.000000 1.000000
vt 0.000000 1.000000
vt 0.000000 0.000000
vt 1.000000 0.000000
vt 1.000000 1.000000
vt 0.000000 1.000000
vt 0.000000 0.000000
vt 1.000000 0.000000
vt 1.000000 1.000000
vt 0.000000 1.000000
vt 0.000000 0.000000
vt 1.000000 0.000000
vt 1.000000 1.000000
vt 0.000000 1.000000
vt 0.000000 0.000000
vt 1.000000 0.000000
vt 1.000000 1.000000
vt 0.000000 1.000000
vt 0.000000 0.000000
vt 1.000000 0.000000
vt 1.000000 1.000000
vt 0.000000 1.000000
vn 0.0000 1.0000 0.0000
usemtl Material.003
s off
f 5/5/2 6/6/2 8/7/2 7/8/2
f 9/9/2 10/10/2 12/11/2 11/12/2
f 13/13/2 14/14/2 16/15/2 15/16/2
f 17/17/2 18/18/2 20/19/2 19/20/2
f 21/21/2 22/22/2 24/23/2 23/24/2
f 25/25/2 26/26/2 28/27/2 27/28/2
f 29/29/2 30/30/2 32/31/2 31/32/2
f 33/33/2 34/34/2 36/35/2 35/36/2
f 37/37/2 38/38/2 40/39/2 39/40/2
f 41/41/2 42/42/2 44/43/2 43/44/2
f 45/45/2 46/46/2 48/47/2 47/48/2
f 49/49/2 50/50/2 52/51/2 51/52/2
f 53/53/2 54/54/2 56/55/2 55/56/2
f 57/57/2 58/58/2 60/59/2 59/60/2
f 61/61/2 62/62/2 64/63/2 63/64/2
f 65/65/2 66/66/2 68/67/2 67/68/2
f 69/69/2 70/70/2 72/71/2 71/72/2
f 73/73/2 74/74/2 76/75/2 75/76/2
f 77/77/2 78/78/2 80/79/2 79/80/2
f 81/81/2 82/82/2 84/83/2 83/84/2
f 85/85/2 86/86/2 88/87/2 87/88/2
f 89/89/2 90/90/2 92/91/2 91/92/2
f 93/93/2 94/94/2 96/95/2 95/96/2
f 97/97/2 98/98/2 100/99/2 99/100/2
f 101/101/2 102/102/2 104/103/2 103/104/2
f 105/105/2 106/106/2 108/107/2 107/108/2
f 109/109/2 110/110/2 112/111/2 111/112/2
f 113/113/2 114/114/2 116/115/2 115/116/2
f 117/117/2 118/118/2 120/119/2 119/120/2
f 121/121/2 122/122/2 124/123/2 123/124/2
f 125/125/2 126/126/2 128/127/2 127/128/2
o NurbsPath_NurbsPath.002
v -12.004658 0.010000 0.000000
v -11.758639 0.010000 0.000000
v -11.535004 0.010000 0.000000
v -11.331308 0.010000 0.000000
v -11.145272 0.010000 0.000000
v -10.974775 0.010000 0.000000
v -10.817861 0.010000 0.000000
v -10.672731 0.010000 0.000000
v -10.537754 0.010000 0.000000
v -10.411455 0.010000 0.000000
v -10.292524 0.010000 0.000000
v -10.179812 0.010000 0.000000
v -10.072331 0.010000 0.000000
v -9.969255 0.010000 0.000000
v -9.869922 0.010000 0.000000
v -9.773826 0.010000 0.000000
v -9.680628 0.010000 0.000000
v -9.590117 0.010000 0.000027
v -9.502112 0.010000 0.000205
v -9.416439 0.010000 0.000787
v -9.332920 0.010000 0.002151
v -9.251381 0.010000 0.004801
v -9.171647 0.010000 0.009365
v -9.093547 0.010000 0.016599
v -9.016909 0.010000 0.027385
v -8.941560 0.010000 0.042730
v -8.867332 0.010000 0.063767
v -8.794055 0.010000 0.091756
v -8.721563 0.010000 0.128080
v -8.649688 0.010000 0.174252
v -8.578265 0.010000 0.231907
v -8.507129 0.010000 0.302809
v -8.436110 0.010000 0.388822
v -8.364953 0.010000 0.491653
v -8.293247 0.010000 0.612586
v -8.220411 0.010000 0.752462
v -8.145700 0.010000 0.911678
v -8.068200 0.010000 1.090186
v -7.986833 0.010000 1.287495
v -7.900351 0.010000 1.502669
v -7.807343 0.010000 1.734327
v -7.706230 0.010000 1.980644
v -7.595265 0.010000 2.239353
v -7.472537 0.010000 2.507738
v -7.335966 0.010000 2.782645
v -7.183306 0.010000 3.060471
v -7.012146 0.010000 3.337169
v -6.819910 0.010000 3.608253
v -6.603998 0.010000 3.868976
v -6.362231 0.010000 4.114889
v -6.092988 0.010000 4.342025
v -5.795209 0.010000 4.546899
v -5.468400 0.010000 4.726508
v -5.112626 0.010000 4.878334
v -4.728515 0.010000 5.000340
v -4.317259 0.010000 5.090974
v -3.880610 0.010000 5.149169
v -3.420884 0.010000 5.174335
v -2.940958 0.010000 5.166371
v -2.444273 0.010000 5.125655
v -1.934831 0.010000 5.053053
v -1.417194 0.010000 4.949909
v -0.896494 0.010000 4.818051
v -0.378367 0.010000 4.659772
v 0.131582 0.010000 4.477581
v 0.628333 0.010000 4.273962
v 1.107495 0.010000 4.051359
v 1.565312 0.010000 3.812167
v 1.998662 0.010000 3.558736
v 2.405055 0.010000 3.293374
v 2.782630 0.010000 3.018340
v 3.130162 0.010000 2.735851
v 3.447060 0.010000 2.448077
v 3.733360 0.010000 2.157145
v 3.989740 0.010000 1.865134
v 4.217500 0.010000 1.574081
v 4.418582 0.010000 1.285975
v 4.595553 0.010000 1.002762
v 4.751616 0.010000 0.726342
v 4.890407 0.010000 0.458537
v 5.015434 0.010000 0.200992
v 5.129873 0.010000 -0.044858
v 5.236572 0.010000 -0.277784
v 5.338052 0.010000 -0.496771
v 5.436499 0.010000 -0.701011
v 5.533773 0.010000 -0.889905
v 5.631410 0.010000 -1.063065
v 5.730608 0.010000 -1.220313
v 5.832240 0.010000 -1.361679
v 5.936852 0.010000 -1.487403
v 6.044655 0.010000 -1.597934
v 6.155533 0.010000 -1.693933
v 6.269047 0.010000 -1.776267
v 6.384422 0.010000 -1.846015
v 6.500570 0.010000 -1.904451
v 6.616329 0.010000 -1.952898
v 6.730659 0.010000 -1.992573
v 6.842688 0.010000 -2.024582
v 6.951689 0.010000 -2.049912
v 7.057095 0.010000 -2.069437
v 7.158497 0.010000 -2.083915
v 7.255638 0.010000 -2.093989
v 7.348419 0.010000 -2.100184
v 7.436897 0.010000 -2.102913
v 7.521278 0.010000 -2.102471
v 7.601934 0.010000 -2.099040
v 7.679390 0.010000 -2.092684
v 7.754316 0.010000 -2.083354
v 7.827553 0.010000 -2.070883
v 7.900091 0.010000 -2.054991
v 7.973007 0.010000 -2.035330
v 8.047338 0.010000 -2.011618
v 8.123989 0.010000 -1.983693
v 8.203741 0.010000 -1.951507
v 8.287256 0.010000 -1.915128
v 8.375082 0.010000 -1.874743
v 8.467642 0.010000 -1.830650
v 8.565243 0.010000 -1.783270
v 8.668066 0.010000 -1.733135
v 8.776176 0.010000 -1.680896
v 8.889513 0.010000 -1.627319
v 9.007908 0.010000 -1.573288
v 9.131060 0.010000 -1.519801
v 9.258549 0.010000 -1.467975
v 9.389847 0.010000 -1.419040
v 9.524292 0.010000 -1.374331
v 9.661182 0.010000 -1.335140
v 9.799809 0.010000 -1.302560
v 9.939466 0.010000 -1.277483
v 10.079462 0.010000 -1.260592
v 10.219105 0.010000 -1.252365
v 10.357710 0.010000 -1.253071
v 10.494600 0.010000 -1.262774
v 10.629112 0.010000 -1.281332
v 10.760569 0.010000 -1.308395
v 10.888321 0.010000 -1.343409
v 11.011707 0.010000 -1.385610
v 11.130091 0.010000 -1.434030
v 11.242821 0.010000 -1.487494
v 11.349272 0.010000 -1.544619
v 11.448805 0.010000 -1.603819
v 11.540838 0.010000 -1.663386
v 11.624882 0.010000 -1.721748
v 11.700592 0.010000 -1.777551
v 11.767776 0.010000 -1.829667
v 11.826372 0.010000 -1.877185
v 11.876457 0.010000 -1.919418
v 11.918249 0.010000 -1.955901
v 11.952114 0.010000 -1.986387
v 11.978548 0.010000 -2.010854
v 11.998198 0.010000 -2.029500
v 12.011845 0.010000 -2.042746
v 12.020405 0.010000 -2.051229
v 12.024946 0.010000 -2.055816
v 12.026672 0.010000 -2.057589
v 12.026926 0.010000 -2.057852
l 129 130
l 130 131
l 131 132
l 132 133
l 133 134
l 134 135
l 135 136
l 136 137
l 137 138
l 138 139
l 139 140
l 140 141
l 141 142
l 142 143
l 143 144
l 144 145
l 145 146
l 146 147
l 147 148
l 148 149
l 149 150
l 150 151
l 151 152
l 152 153
l 153 154
l 154 155
l 155 156
l 156 157
l 157 158
l 158 159
l 159 160
l 160 161
l 161 162
l 162 163
l 163 164
l 164 165
l 165 166
l 166 167
l 167 168
l 168 169
l 169 170
l 170 171
l 171 172
l 172 173
l 173 174
l 174 175
l 175 176
l 176 177
l 177 178
l 178 179
l 179 180
l 180 181
l 181 182
l 182 183
l 183 184
l 184 185
l 185 186
l 186 187
l 187 188
l 188 189
l 189 190
l 190 191
l 191 192
l 192 193
l 193 194
l 194 195
l 195 196
l 196 197
l 197 198
l 198 199
l 199 200
l 200 201
l 201 202
l 202 203
l 203 204
l 204 205
l 205 206
l 206 207
l 207 208
l 208 209
l 209 210
l 210 211
l 211 212
l 212 213
l 213 214
l 214 215
l 215 216
l 216 217
l 217 218
l 218 219
l 219 220
l 220 221
l 221 222
l 222 223
l 223 224
l 224 225
l 225 226
l 226 227
l 227 228
l 228 229
l 229 230
l 230 231
l 231 232
l 232 233
l 233 234
l 234 235
l 235 236
l 236 237
l 237 238
l 238 239
l 239 240
l 240 241
l 241 242
l 242 243
l 243 244
l 244 245
l 245 246
l 246 247
l 247 248
l 248 249
l 249 250
l 250 251
l 251 252
l 252 253
l 253 254
l 254 255
l 255 256
l 256 257
l 257 258
l 258 259
l 259 260
l 260 261
l 261 262
l 262 263
l 263 264
l 264 265
l 265 266
l 266 267
l 267 268
l 268 269
l 269 270
l 270 271
l 271 272
l 272 273
l 273 274
l 274 275
l 275 276
l 276 277
l 277 278
l 278 279
l 279 280
l 280 281
l 281 282
l 282 283
l 283 284
