# Blender v2.79 (sub 0) OBJ File: ''
# www.blender.org
mtllib weird_ball.mtl
o pPlatonic1_Untitled.007
v 0.000000 0.000000 -0.773288
v 0.559557 0.406542 -0.345825
v -0.213732 0.657798 -0.345825
v -0.691650 -0.000000 -0.345825
v -0.213732 -0.657798 -0.345825
v 0.559557 -0.406542 -0.345825
v 0.691650 -0.000000 0.345825
v 0.213732 0.657798 0.345825
v -0.559557 0.406542 0.345825
v -0.559557 -0.406542 0.345825
v 0.213732 -0.657798 0.345825
v 0.000000 -0.000000 0.773288
v -0.121663 0.374440 -0.637036
v 0.196855 0.605857 -0.393710
v 0.318518 0.231417 -0.637036
v 0.138768 0.427083 -0.587829
v -0.393710 -0.000000 -0.637036
v -0.515373 0.374440 -0.393710
v -0.363298 0.263952 -0.587829
v -0.121663 -0.374440 -0.637036
v -0.515373 -0.374440 -0.393710
v -0.363298 -0.263952 -0.587829
v 0.318518 -0.231417 -0.637036
v 0.196855 -0.605857 -0.393710
v 0.138768 -0.427083 -0.587829
v 0.637036 -0.000000 -0.393710
v 0.449061 0.000000 -0.587829
v -0.000000 0.748881 0.000000
v 0.440181 0.605857 0.000000
v 0.224531 0.691035 -0.138768
v -0.712228 0.231417 0.000000
v -0.440181 0.605857 0.000000
v -0.587829 0.427083 -0.138768
v -0.440181 -0.605857 -0.000000
v -0.712228 -0.231417 -0.000000
v -0.587829 -0.427083 -0.138768
v 0.440181 -0.605857 -0.000000
v 0.000000 -0.748881 -0.000000
v 0.224531 -0.691035 -0.138768
v 0.712228 0.231417 0.000000
v 0.712228 -0.231417 -0.000000
v 0.726597 -0.000000 -0.138768
v 0.515373 0.374440 0.393710
v 0.587829 0.427083 0.138768
v -0.196855 0.605857 0.393710
v -0.224531 0.691035 0.138768
v -0.637036 -0.000000 0.393710
v -0.726597 -0.000000 0.138768
v -0.196855 -0.605857 0.393710
v -0.224531 -0.691035 0.138768
v 0.515373 -0.374440 0.393710
v 0.587829 -0.427083 0.138768
v 0.121663 0.374440 0.637036
v 0.393710 -0.000000 0.637036
v 0.363298 0.263952 0.587829
v -0.318518 0.231417 0.637036
v -0.138768 0.427083 0.587829
v -0.318518 -0.231417 0.637036
v -0.449061 -0.000000 0.587829
v 0.121663 -0.374440 0.637036
v -0.138768 -0.427083 0.587829
v 0.363298 -0.263952 0.587829
vt 0.000000 0.000000
vt 1.000000 0.000000
vt 1.000000 1.000000
vt 0.000000 1.000000
vt 0.000000 0.000000
vt 1.000000 0.000000
vt 1.000000 1.000000
vt 0.000000 0.000000
vt 1.000000 0.000000
vt 1.000000 1.000000
vt 1.000000 1.000000
vt 0.000000 1.000000
vt 0.000000 0.000000
vt 1.000000 0.000000
vt 1.000000 1.000000
vt 0.000000 0.000000
vt 1.000000 1.000000
vt 0.000000 1.000000
vt 0.000000 0.000000
vt 1.000000 0.000000
vt 1.000000 1.000000
vt 0.000000 0.000000
vt 1.000000 1.000000
vt 0.000000 1.000000
vt 0.000000 0.000000
vt 1.000000 0.000000
vt 1.000000 1.000000
vt 0.000000 0.000000
vt 0.000000 1.000000
vt 1.000000 1.000000
vt 0.000000 0.000000
vt 0.000000 0.000000
vt 0.000000 1.000000
vt 1.000000 1.000000
vt 0.000000 0.000000
vt 1.000000 0.000000
vt 1.000000 1.000000
vt 0.000000 0.000000
vt 0.000000 1.000000
vt 1.000000 1.000000
vt 0.000000 0.000000
vt 1.000000 0.000000
vt 1.000000 1.000000
vt 0.000000 0.000000
vt 0.000000 1.000000
vt 1.000000 1.000000
vt 0.000000 0.000000
vt 1.000000 0.000000
vt 1.000000 1.000000
vt 0.000000 0.000000
vt 0.000000 1.000000
vt 1.000000 1.000000
vt 0.000000 0.000000
vt 1.000000 0.000000
vt 1.000000 1.000000
vt 0.000000 0.000000
vt 0.000000 1.000000
vt 1.000000 1.000000
vt 0.000000 0.000000
vt 1.000000 0.000000
vt 1.000000 1.000000
vt 0.000000 1.000000
vt 1.000000 1.000000
vt 0.000000 0.000000
vt 0.000000 1.000000
vt 1.000000 1.000000
vt 0.000000 0.000000
vt 0.000000 1.000000
vt 1.000000 1.000000
vt 0.000000 0.000000
vt 0.000000 1.000000
vt 1.000000 1.000000
vt 0.000000 0.000000
vt 0.000000 1.000000
vt 1.000000 1.000000
vt 0.000000 0.000000
vt 0.000000 0.000000
vt 0.000000 1.000000
vt 1.000000 1.000000
vt 0.000000 0.000000
vt 1.000000 0.000000
vt 1.000000 1.000000
vt 0.000000 1.000000
vt 1.000000 1.000000
vt 0.000000 0.000000
vt 0.000000 1.000000
vt 1.000000 1.000000
vt 0.000000 0.000000
vt 0.000000 1.000000
vt 1.000000 1.000000
vt 0.000000 0.000000
vt 0.000000 1.000000
vn 0.1180 0.3630 -0.9243
vn 0.0006 0.7242 -0.6896
vn 0.4252 0.5863 -0.6896
vn -0.3088 0.2244 -0.9243
vn -0.6886 0.2244 -0.6896
vn -0.4262 0.5856 -0.6896
vn -0.3088 -0.2244 -0.9243
vn -0.4262 -0.5856 -0.6896
vn -0.6886 -0.2244 -0.6896
vn 0.1180 -0.3630 -0.9243
vn 0.4252 -0.5863 -0.6896
vn 0.0006 -0.7242 -0.6896
vn 0.3817 0.0000 -0.9243
vn 0.6890 0.2232 -0.6896
vn 0.6890 -0.2232 -0.6896
vn 0.4981 0.8106 -0.3078
vn 0.0735 0.9486 -0.3078
vn 0.3082 0.9486 0.0719
vn -0.6170 0.7242 -0.3078
vn -0.8795 0.3630 -0.3078
vn -0.8069 0.5863 0.0719
vn -0.8795 -0.3630 -0.3078
vn -0.6170 -0.7242 -0.3078
vn -0.8069 -0.5863 0.0719
vn 0.0735 -0.9486 -0.3078
vn 0.4981 -0.8106 -0.3078
vn 0.3082 -0.9486 0.0719
vn 0.9249 -0.2232 -0.3078
vn 0.9249 0.2232 -0.3078
vn 0.9974 -0.0000 0.0719
vn 0.8069 0.5863 -0.0719
vn 0.6170 0.7242 0.3078
vn 0.8795 0.3630 0.3078
vn -0.3082 0.9486 -0.0719
vn -0.4981 0.8106 0.3078
vn -0.0735 0.9486 0.3078
vn -0.9974 0.0000 -0.0719
vn -0.9249 -0.2232 0.3078
vn -0.9249 0.2232 0.3078
vn -0.3082 -0.9486 -0.0719
vn -0.0735 -0.9486 0.3078
vn -0.4981 -0.8106 0.3078
vn 0.8069 -0.5863 -0.0719
vn 0.8795 -0.3630 0.3078
vn 0.6170 -0.7242 0.3078
vn 0.6886 0.2244 0.6896
vn 0.4262 0.5856 0.6896
vn 0.3088 0.2244 0.9243
vn -0.0006 0.7242 0.6896
vn -0.4252 0.5863 0.6896
vn -0.1180 0.3630 0.9243
vn -0.6890 0.2232 0.6896
vn -0.6890 -0.2232 0.6896
vn -0.3817 0.0000 0.9243
vn -0.4252 -0.5863 0.6896
vn -0.0006 -0.7242 0.6896
vn -0.1180 -0.3630 0.9243
vn 0.4262 -0.5856 0.6896
vn 0.6886 -0.2244 0.6896
vn 0.3088 -0.2244 0.9243
usemtl M_Wireframe
s 1
f 15/1/1 1/2/1 13/3/1 16/4/1
f 13/5/2 3/6/2 14/7/2 16/4/2
f 14/8/3 2/9/3 15/10/3 16/4/3
f 13/5/4 1/2/4 17/11/4 19/12/4
f 17/13/5 4/14/5 18/15/5 19/12/5
f 18/16/6 3/6/6 13/3/6 19/12/6
f 17/13/7 1/2/7 20/17/7 22/18/7
f 20/19/8 5/20/8 21/21/8 22/18/8
f 21/22/9 4/14/9 17/11/9 22/18/9
f 20/19/10 1/2/10 23/23/10 25/24/10
f 23/25/11 6/26/11 24/27/11 25/24/11
f 24/28/12 5/20/12 20/17/12 25/24/12
f 23/25/13 1/2/13 15/10/13 27/29/13
f 15/1/14 2/9/14 26/30/14 27/29/14
f 26/31/15 6/26/15 23/23/15 27/29/15
f 29/32/16 2/9/16 14/7/16 30/33/16
f 14/8/17 3/6/17 28/34/17 30/33/17
f 28/35/18 8/36/18 29/37/18 30/33/18
f 32/38/19 3/6/19 18/15/19 33/39/19
f 18/16/20 4/14/20 31/40/20 33/39/20
f 31/41/21 9/42/21 32/43/21 33/39/21
f 35/44/22 4/14/22 21/21/22 36/45/22
f 21/22/23 5/20/23 34/46/23 36/45/23
f 34/47/24 10/48/24 35/49/24 36/45/24
f 38/50/25 5/20/25 24/27/25 39/51/25
f 24/28/26 6/26/26 37/52/26 39/51/26
f 37/53/27 11/54/27 38/55/27 39/51/27
f 41/56/28 6/26/28 26/30/28 42/57/28
f 26/31/29 2/9/29 40/58/29 42/57/29
f 40/59/30 7/60/30 41/61/30 42/57/30
f 40/59/31 2/9/31 29/37/31 44/62/31
f 29/32/32 8/36/32 43/63/32 44/62/32
f 43/64/33 7/60/33 40/58/33 44/62/33
f 28/35/34 3/6/34 32/43/34 46/65/34
f 32/38/35 9/42/35 45/66/35 46/65/35
f 45/67/36 8/36/36 28/34/36 46/65/36
f 31/41/37 4/14/37 35/49/37 48/68/37
f 35/44/38 10/48/38 47/69/38 48/68/38
f 47/70/39 9/42/39 31/40/39 48/68/39
f 34/47/40 5/20/40 38/55/40 50/71/40
f 38/50/41 11/54/41 49/72/41 50/71/41
f 49/73/42 10/48/42 34/46/42 50/71/42
f 37/53/43 6/26/43 41/61/43 52/74/43
f 41/56/44 7/60/44 51/75/44 52/74/44
f 51/76/45 11/54/45 37/52/45 52/74/45
f 54/77/46 7/60/46 43/63/46 55/78/46
f 43/64/47 8/36/47 53/79/47 55/78/47
f 53/80/48 12/81/48 54/82/48 55/78/48
f 53/80/49 8/36/49 45/66/49 57/83/49
f 45/67/50 9/42/50 56/84/50 57/83/50
f 56/85/51 12/81/51 53/79/51 57/83/51
f 56/85/52 9/42/52 47/69/52 59/86/52
f 47/70/53 10/48/53 58/87/53 59/86/53
f 58/88/54 12/81/54 56/84/54 59/86/54
f 58/88/55 10/48/55 49/72/55 61/89/55
f 49/73/56 11/54/56 60/90/56 61/89/56
f 60/91/57 12/81/57 58/87/57 61/89/57
f 60/91/58 11/54/58 51/75/58 62/92/58
f 51/76/59 7/60/59 54/82/59 62/92/59
f 54/77/60 12/81/60 60/90/60 62/92/60
